<?xml version="1.0" encoding="utf-8"?>
<!-- Generator: Adobe Illustrator 18.1.1, SVG Export Plug-In . SVG Version: 6.00 Build 0)  -->
<svg version="1.1" id="Layer_1" xmlns="http://www.w3.org/2000/svg" xmlns:xlink="http://www.w3.org/1999/xlink" x="0px" y="0px"
	 viewBox="0 0 50 50" enable-background="new 0 0 50 50" xml:space="preserve">
<g>
	<g>
		<path d="M38.8,20.9v-6.6h-3.3v6.6h-6.6v2.6h6.6v7.3h3.3v-7.3h6.6v-2.6H38.8z M24,27.2c-1.1-0.7-3.1-2.5-3.1-3.6
			c0-1.2,0.4-1.9,2.2-3.3c1.9-1.5,3.3-3.7,3.3-6.1c0-2.9-1.3-5.5-3.8-6.8h3.7L29,6.1c0,0-8.7,0-11.7,0c-5.2,0-10.1,3.8-10.1,8.3
			c0,4.7,3.6,8.3,8.9,8.3c0.4,0,0.7-0.1,1.1-0.1c-0.3,0.7-0.6,1.4-0.6,2.1c0,1.3,0.7,2.3,1.6,3.2c-0.7,0-1.3,0-2,0
			c-6.5,0-11.5,4.1-11.5,8.4c0,4.2,5.5,6.8,11.9,6.8c7.4,0,11.5-4.2,11.5-8.4C28.1,31.4,27.1,29.4,24,27.2z M17.8,21.4
			c-3-0.1-5.9-3.3-6.4-7.3c-0.5-3.9,1.5-6.9,4.5-6.8c3,0.1,5.9,3.2,6.4,7.2C22.8,18.4,20.8,21.5,17.8,21.4z M16.6,41.3
			c-4.5,0-7.7-2.8-7.7-6.2c0-3.3,4-6.1,8.5-6c1,0,2,0.2,2.9,0.5c2.4,1.7,4.2,2.6,4.7,4.5c0.1,0.4,0.1,0.8,0.1,1.2
			C25.1,38.6,22.9,41.3,16.6,41.3z"/>
	</g>
</g>
</svg>
