<svg xmlns="http://www.w3.org/2000/svg" width="50" height="50" viewBox="0 0 50 50" enable-background="new 0 0 50 50"><path d="M38.8 20.9v-6.6h-3.3v6.6h-6.6v2.6h6.6v7.3h3.3v-7.3h6.6v-2.6h-6.6zm-14.8 6.3c-1.1-.7-3.1-2.5-3.1-3.6 0-1.2.4-1.9 2.2-3.3 1.9-1.5 3.3-3.7 3.3-6.1 0-2.9-1.3-5.5-3.8-6.8h3.7l2.7-1.3h-11.7c-5.2 0-10.1 3.8-10.1 8.3 0 4.7 3.6 8.3 8.9 8.3l1.1-.1c-.3.7-.6 1.4-.6 2.1 0 1.3.7 2.3 1.6 3.2h-2c-6.5 0-11.5 4.1-11.5 8.4 0 4.2 5.5 6.8 11.9 6.8 7.4 0 11.5-4.2 11.5-8.4 0-3.3-1-5.3-4.1-7.5zm-6.2-5.8c-3-.1-5.9-3.3-6.4-7.3-.5-3.9 1.5-6.9 4.5-6.8 3 .1 5.9 3.2 6.4 7.2.5 3.9-1.5 7-4.5 6.9zm-1.2 19.9c-4.5 0-7.7-2.8-7.7-6.2 0-3.3 4-6.1 8.5-6 1 0 2 .2 2.9.5 2.4 1.7 4.2 2.6 4.7 4.5.1.4.1.8.1 1.2 0 3.3-2.2 6-8.5 6z"/></svg>