<?xml version="1.0" encoding="utf-8"?>
<!-- Generator: Adobe Illustrator 18.0.0, SVG Export Plug-In . SVG Version: 6.00 Build 0)  -->
<!DOCTYPE svg PUBLIC "-//W3C//DTD SVG 1.1//EN" "http://www.w3.org/Graphics/SVG/1.1/DTD/svg11.dtd">
<svg version="1.1" id="Layer_1" xmlns="http://www.w3.org/2000/svg" xmlns:xlink="http://www.w3.org/1999/xlink" x="0px" y="0px"
	 viewBox="0 22.6 1024 722.8" enable-background="new 0 22.6 1024 722.8" xml:space="preserve">
<g>
	<rect x="0" y="22.6" fill="#273376" width="1023.9" height="722"/>
	<g>
		<polygon fill="#FFFFFF" points="1024,275.3 614.4,275.3 614.4,22.6 409.6,22.6 409.6,275.3 0,275.3 0,491.9 409.6,491.9 
			409.6,744.6 614.4,744.6 614.4,491.9 1024,491.9 		"/>
		<polygon fill="#FFFFFF" points="1024,661.7 117.5,22.6 0,22.6 0,106.2 905.6,744.6 1024,744.6 		"/>
		<polygon fill="#FFFFFF" points="0,661.7 906.5,22.6 1024,22.6 1024,106.2 118.4,744.6 0,744.6 		"/>
		<polygon fill="#CE202C" points="1024,320.4 571.7,320.4 571.7,22.6 452.3,22.6 452.3,320.4 0,320.4 0,446.8 452.3,446.8 
			452.3,744.6 571.7,744.6 571.7,446.8 1024,446.8 		"/>
		<polygon fill="#CE202C" points="1024,742.5 1024,685.5 748.8,491.9 667.7,491.9 		"/>
		<polygon fill="#CE202C" points="1024,22.6 943,22.6 614.4,253.7 614.4,275.3 664.8,275.3 1024,22.6 		"/>
		<polygon fill="#CE202C" points="356.4,491.9 0,742.6 0,744.6 78.2,744.6 409.6,511.5 409.6,491.9 		"/>
		<polygon fill="#CE202C" points="0,23.1 0,80.1 277.5,275.3 358.6,275.3 		"/>
	</g>
</g>
</svg>
