<svg xmlns="http://www.w3.org/2000/svg" width="50" height="50"  viewBox="0 22.6 1024 722.8" enable-background="new 0 22.6 1024 722.8"><path fill="#273376" d="M0 22.6h1023.9v722h-1023.9z"/><path fill="#fff" d="M1024 275.3h-409.6v-252.7h-204.8v252.7h-409.6v216.6h409.6v252.7h204.8v-252.7h409.6zM1024 661.7l-906.5-639.1h-117.5v83.6l905.6 638.4h118.4zM0 661.7l906.5-639.1h117.5v83.6l-905.6 638.4h-118.4z"/><path fill="#CE202C" d="M1024 320.4h-452.3v-297.8h-119.4v297.8h-452.3v126.4h452.3v297.8h119.4v-297.8h452.3zM1024 742.5v-57l-275.2-193.6h-81.1zM1024 22.6h-81l-328.6 231.1v21.6h50.4l359.2-252.7zM356.4 491.9l-356.4 250.7v2h78.2l331.4-233.1v-19.6zM0 23.1v57l277.5 195.2h81.1z"/></svg>