<?xml version="1.0" encoding="utf-8"?>
<svg xmlns="http://www.w3.org/2000/svg"
	xmlns:xlink="http://www.w3.org/1999/xlink"
	width="26px" height="24px">
<path fill="rgb(0,0,0)" fill-rule="evenodd" d="M 20.8 23.98C 20.8 23.98 20.8 14.28 20.8 14.28 20.8 14.28 20.51 11.69 17.96 11.69 15.42 11.69 14.95 14.15 14.95 14.15 14.95 14.15 14.95 23.98 14.95 23.98 14.95 23.98 9.7 23.98 9.7 23.98 9.7 23.98 9.79 7.96 9.79 7.96 9.79 7.96 14.87 7.96 14.87 7.96 14.87 7.96 14.82 9.97 14.82 9.97 14.82 9.97 15.88 7.34 19.87 7.34 23.86 7.34 25.66 9.6 26 13.82 26 18.04 26 23.98 26 23.98 26 23.98 20.8 23.98 20.8 23.98ZM 3.27 5.69C 1.46 5.69 0 4.41 0 2.84 0 1.27 1.46-0 3.27-0 5.07-0 6.53 1.27 6.53 2.84 6.53 4.41 5.07 5.69 3.27 5.69ZM 6.51 24C 6.51 24 0.05 24 0.05 24 0.05 24 0.05 8 0.05 8 0.05 8 6.51 7.96 6.51 7.96 6.51 7.96 6.51 24 6.51 24Z"/>
</svg>