<svg xmlns="http://www.w3.org/2000/svg" width="16" height="26"><path fill-rule="evenodd" d="M7.98 13.14c3.72 0 6.73-2.94 6.73-6.57 0-3.64-3.01-6.58-6.73-6.58-3.71 0-6.72 2.94-6.72 6.58 0 3.63 3.01 6.57 6.72 6.57zm0-9.81c1.83 0 3.31 1.45 3.31 3.24 0 1.78-1.48 3.23-3.31 3.23-1.82 0-3.3-1.45-3.3-3.23 0-1.79 1.48-3.24 3.3-3.24zm7.75 10.62c-.38-.75-1.43-1.37-2.82-.29-1.89 1.45-4.93 1.45-4.93 1.45s-3.03 0-4.92-1.45c-1.39-1.08-2.44-.46-2.82.29-.67 1.3.08 1.93 1.77 2.99 1.44.9 3.42 1.24 4.7 1.37l-1.07 1.04-3.96 3.88c-.6.59-.6 1.54 0 2.13l.18.18c.6.59 1.58.59 2.18 0l3.96-3.88c1.51 1.47 2.96 2.89 3.96 3.88.6.59 1.58.59 2.18 0l.18-.18c.61-.59.61-1.54 0-2.13l-3.96-3.88-1.07-1.05c1.28-.13 3.24-.47 4.67-1.36 1.69-1.06 2.43-1.69 1.77-2.99z"/></svg>