<svg xmlns="http://www.w3.org/2000/svg" width="22" height="22"><path fill-rule="evenodd" d="M21.48 13.56c-.07-.15-.1-.29-.07-.46.26-1.22.27-2.46.06-3.69-.91-5.46-6.13-9.29-11.67-8.55-.32.04-.59-.01-.88-.16-2.34-1.23-5.21-.81-7.11 1.04-1.88 1.81-2.35 4.65-1.15 6.96.13.24.17.46.11.73-.12.56-.13 1.13-.15 1.72.02.33.02.68.06 1.04.63 5.91 6.12 10.06 12.1 9.14.19-.03.34 0 .5.08 1.13.56 2.35.7 3.57.51 4-.63 6.23-4.68 4.63-8.36zm-5.22 2.76c-.67.75-1.52 1.24-2.48 1.51-1.8.51-3.62.53-5.41 0-1.64-.49-2.84-1.49-3.32-3.16-.34-1.18.44-2.07 1.63-1.93.52.06.86.37 1.11.79.15.27.27.55.41.83.45.9 1.16 1.4 2.18 1.51.83.09 1.64.04 2.41-.31.3-.13.56-.32.78-.56.58-.66.47-1.59-.24-2.1-.68-.5-1.5-.64-2.3-.81-1.14-.25-2.29-.49-3.36-.96-1.12-.49-2.02-1.2-2.31-2.44-.34-1.44.07-2.65 1.24-3.59 1.03-.82 2.26-1.08 3.55-1.19.29-.03.59-.01.89-.01 1.19-.03 2.34.13 3.41.66.82.42 1.49.98 1.89 1.82.19.41.28.85.16 1.29-.15.53-.52.91-1.08 1.02-.58.11-1.12.02-1.49-.51-.17-.25-.34-.51-.5-.78-.5-.84-1.21-1.3-2.22-1.3-.47 0-.93-.01-1.38.09-.41.1-.78.27-1.09.55-.55.5-.52 1.2.06 1.66.39.3.85.47 1.32.59 1.11.28 2.22.53 3.33.82.6.15 1.18.39 1.74.66 2.59 1.29 2.41 4.35 1.07 5.85z"/></svg>