<?xml version="1.0" encoding="utf-8"?>
<svg xmlns="http://www.w3.org/2000/svg"
	xmlns:xlink="http://www.w3.org/1999/xlink"
	width="22px" height="22px">
<path fill="rgb(0,0,0)" fill-rule="evenodd" d="M 21.48 13.56C 21.41 13.41 21.38 13.27 21.41 13.1 21.67 11.88 21.68 10.64 21.47 9.41 20.56 3.95 15.34 0.12 9.8 0.86 9.48 0.9 9.21 0.85 8.92 0.7 6.58-0.53 3.71-0.11 1.81 1.74-0.07 3.55-0.54 6.39 0.66 8.7 0.79 8.94 0.83 9.16 0.77 9.43 0.65 9.99 0.64 10.56 0.62 11.15 0.64 11.48 0.64 11.83 0.68 12.19 1.31 18.1 6.8 22.25 12.78 21.33 12.97 21.3 13.12 21.33 13.28 21.41 14.41 21.97 15.63 22.11 16.85 21.92 20.85 21.29 23.08 17.24 21.48 13.56ZM 16.26 16.32C 15.59 17.07 14.74 17.56 13.78 17.83 11.98 18.34 10.16 18.36 8.37 17.83 6.73 17.34 5.53 16.34 5.05 14.67 4.71 13.49 5.49 12.6 6.68 12.74 7.2 12.8 7.54 13.11 7.79 13.53 7.94 13.8 8.06 14.08 8.2 14.36 8.65 15.26 9.36 15.76 10.38 15.87 11.21 15.96 12.02 15.91 12.79 15.56 13.09 15.43 13.35 15.24 13.57 15 14.15 14.34 14.04 13.41 13.33 12.9 12.65 12.4 11.83 12.26 11.03 12.09 9.89 11.84 8.74 11.6 7.67 11.13 6.55 10.64 5.65 9.93 5.36 8.69 5.02 7.25 5.43 6.04 6.6 5.1 7.63 4.28 8.86 4.02 10.15 3.91 10.44 3.88 10.74 3.9 11.04 3.9 12.23 3.87 13.38 4.03 14.45 4.56 15.27 4.98 15.94 5.54 16.34 6.38 16.53 6.79 16.62 7.23 16.5 7.67 16.35 8.2 15.98 8.58 15.42 8.69 14.84 8.8 14.3 8.71 13.93 8.18 13.76 7.93 13.59 7.67 13.43 7.4 12.93 6.56 12.22 6.1 11.21 6.1 10.74 6.1 10.28 6.09 9.83 6.19 9.42 6.29 9.05 6.46 8.74 6.74 8.19 7.24 8.22 7.94 8.8 8.4 9.19 8.7 9.65 8.87 10.12 8.99 11.23 9.27 12.34 9.52 13.45 9.81 14.05 9.96 14.63 10.2 15.19 10.47 17.78 11.76 17.6 14.82 16.26 16.32Z"/>
</svg>