<svg xmlns="http://www.w3.org/2000/svg" width="69" height="69"  viewBox="0 0 69 69" enable-background="new 0 0 69 69"><path fill="#363636" d="M66 0h-17c-1.7 0-3 1.3-3 3v17c0 1.7 1.3 3 3 3h17c1.7 0 3-1.3 3-3v-17c0-1.7-1.3-3-3-3zm-.9 5.9c-.5 0-1.2-.1-1.6-.1-1.1 0-1.2.5-1.2 1.2v1.3h2.8l-.2 2.9h-2.6v8.8h-3.5v-8.5h-1.8v-2.9h1.8v-1.8c0-2.4 1.2-3.8 4-3.8 1 0 1.7.1 2.7.2l-.4 2.7zM35.1 35.6h-1.7v2.6h1.7c.6 0 1-.1 1.2-.4.2-.2.4-.6.4-1s-.1-.7-.4-.9c-.2-.2-.6-.3-1.2-.3zm.8-2.8c.2-.2.3-.5.3-.9s-.1-.7-.3-.9c-.2-.2-.6-.3-1.1-.3h-1.5v2.5h1.5c.5-.1.9-.2 1.1-.4zm7.1-9.8h-17c-1.7 0-3 1.3-3 3v17c0 1.7 1.3 3 3 3h17c1.7 0 3-1.3 3-3v-17c0-1.7-1.3-3-3-3zm-3.4 16.1c-.3.5-.6 1-1.1 1.3-.3.2-.7.3-1.3.4-.7.1-1.2.2-1.4.2h-5.8v-13h6.3c1 0 1.8.3 2.4.9.6.6.8 1.4.8 2.3 0 .8-.2 1.4-.6 2-.3.4-.7.7-1.2.9.8.2 1.3.6 1.7 1.2.4.5.5 1.2.5 2.1.1.6 0 1.2-.3 1.7z"/><path fill-rule="evenodd" clip-rule="evenodd" fill="#363636" d="M20 46h-17c-1.7 0-3 1.3-3 3v17c0 1.7 1.3 3 3 3h17c1.7 0 3-1.3 3-3v-17c0-1.7-1.3-3-3-3zm-4.5 18.9c-.8.1-1.7 0-2.4-.3-.1-.1-.2-.1-.3-.1-4.1.6-7.8-2.2-8.3-6.2v-.7c0-.4 0-.8.1-1.2 0-.2 0-.3-.1-.5-.8-1.6-.5-3.5.8-4.7 1.3-1.3 3.3-1.5 4.9-.7.2.1.4.1.6.1 3.8-.5 7.3 2.1 8 5.8.1.8.1 1.7 0 2.5v.3c.9 2.5-.6 5.3-3.3 5.7zm-1.1-7.8l-1.2-.5-2.3-.6c-.3-.1-.6-.2-.9-.4-.4-.3-.4-.8 0-1.1.2-.2.5-.3.7-.4.3-.1.6-.1.9-.1.7 0 1.2.3 1.5.9.1.2.2.4.3.5.3.4.6.4 1 .3.4-.1.6-.3.7-.7.1-.3 0-.6-.1-.9-.3-.6-.7-1-1.3-1.2-.7-.4-1.5-.5-2.3-.4h-.6c-.9.1-1.7.3-2.4.8-.8.6-1.1 1.5-.8 2.4.2.8.8 1.3 1.6 1.7.7.3 1.5.5 2.3.7.5.1 1.1.2 1.6.6.5.4.6 1 .2 1.4-.1.2-.3.3-.5.4-.5.2-1.1.3-1.6.2-.7-.1-1.2-.4-1.5-1l-.3-.6c-.2-.3-.4-.5-.8-.5-.8-.1-1.3.5-1.1 1.3.3 1.1 1.1 1.8 2.3 2.1 1.2.4 2.5.4 3.7 0 .7-.2 1.2-.5 1.7-1 .8-.9.9-3-.8-3.9z"/></svg>