<svg xmlns="http://www.w3.org/2000/svg" width="160" height="32"  viewBox="0 0 160 32" enable-background="new 0 0 160 32"><path fill-rule="evenodd" clip-rule="evenodd" fill="#fff" d="M16 20.4h1s.3 0 .4-.2c.1-.2.1-.4.1-.4s0-1.3.6-1.5c.6-.2 1.4 1.3 2.2 1.9.6.4 1.1.3 1.1.3h2.2s1.1-.1.6-1c0-.1-.3-.7-1.6-1.9-1.4-1.3-1.2-1.1.5-3.3 1-1.4 1.4-2.2 1.3-2.5-.1-.3-.9-.2-.9-.2h-2.5s-.2 0-.3.1c-.1.1-.2.3-.2.3s-.4 1-.9 1.9c-1.1 1.9-1.5 2-1.7 1.9-.4-.3-.3-1.1-.3-1.7 0-1.8.3-2.6-.5-2.8-.3-.1-.5-.1-1.1-.1-.9 0-1.6 0-2 .2-.3.1-.5.4-.4.5.2 0 .5.1.7.4.3.3.2 1.1.2 1.1s.1 2.1-.3 2.4c-.3.2-.8-.2-1.8-1.9-.5-.9-.9-1.8-.9-1.8s-.1-.2-.2-.3l-.4-.2h-2.3s-.4 0-.5.2c-.2-.1-.1.2-.1.2s1.8 4.3 3.9 6.5c1.9 2 4.1 1.9 4.1 1.9z"/><path fill="#fff" d="M51 8.2c-.8-.1-1.4-.2-2.2-.2-2.3 0-3.3 1.1-3.3 3.1v1.5h-1.5v2.4h1.5v7h2.9v-7.2h2.1l.2-2.4h-2.3v-1.1c0-.6.1-1 1-1 .3 0 .9.1 1.3.1l.3-2.2zM86 11.3c-.5.2-1 .4-1.5.4.6-.3 1-.9 1.2-1.5-.5.3-1.1.5-1.7.7-.5-.6-1.2-.9-2-.9-1.5 0-2.7 1.2-2.7 2.8 0 .2 0 .4.1.6-2.2-.1-4.2-1.2-5.5-2.9-.2.4-.4.9-.4 1.4 0 1 .5 1.8 1.2 2.3-.4 0-.8-.1-1.2-.3 0 1.3.9 2.5 2.1 2.7-.2.1-.5.1-.7.1h-.5c.3 1.1 1.3 1.9 2.5 1.9-.9.7-2.1 1.2-3.3 1.2h-.6c1.2.8 2.6 1.2 4.1 1.2 4.9 0 7.6-4.2 7.6-7.9v-.4c.5-.4.9-.8 1.3-1.4zM107.6 18.9c-.9 0-1.6.7-1.6 1.6 0 .9.7 1.6 1.6 1.6.9 0 1.6-.7 1.6-1.6-.1-.9-.8-1.6-1.6-1.6zm-1.6-4.7v2.1c3.2 0 5.7 2.6 5.7 5.7h2.1c0-4.3-3.5-7.8-7.8-7.8zm0-4.2v2.1c5.5 0 9.9 4.4 9.9 9.9h2.1c0-6.6-5.4-12-12-12zM145 10h-3.3c-.9 0-2 .1-2.9.9-.7.6-1 1.4-1 2.1 0 1.2 1 2.5 2.7 2.5h.5c-.1.2-.2.3-.2.6 0 .5.3.8.5 1.1-.7 0-2.1.1-3.1.7-.9.6-1.2 1.4-1.2 1.9 0 1.2 1.1 2.3 3.4 2.3 2.8 0 4.2-1.5 4.2-3 0-1.1-.6-1.6-1.3-2.2l-.6-.4c-.2-.1-.4-.3-.4-.7 0-.3.2-.6.5-.8.7-.5 1.3-1.1 1.3-2.2 0-1.2-.8-1.8-1.1-2.1h1l1-.7zm-1.4 9.6c0 1-.8 1.7-2.4 1.7-1.7 0-2.8-.8-2.8-1.9 0-1.1 1-1.5 1.4-1.6.7-.2 1.5-.3 1.7-.3h.4c1.2.9 1.7 1.3 1.7 2.1zm-1.3-5c-.3.3-.7.4-1.1.4-1.4 0-2-1.7-2-2.8 0-.4.1-.8.4-1.2.3-.3.7-.5 1.1-.5 1.3 0 2 1.8 2 2.9 0 .3 0 .8-.4 1.2zm6.3-2.2v-2.4h-.6v2.4h-2.5v.6h2.5v2.5h.6v-2.5h2.4v-.6h-2.4z"/></svg>