<?xml version="1.0" encoding="utf-8"?>
<!-- Generator: Adobe Illustrator 18.1.0, SVG Export Plug-In . SVG Version: 6.00 Build 0)  -->
<svg version="1.1" id="Layer_1" xmlns="http://www.w3.org/2000/svg" xmlns:xlink="http://www.w3.org/1999/xlink" x="0px" y="0px"
	 viewBox="0 0 69 69" enable-background="new 0 0 69 69" xml:space="preserve">
<g>
	<g>
		<path fill="#363636" d="M66,0H49c-1.7,0-3,1.3-3,3v17c0,1.7,1.3,3,3,3h17c1.7,0,3-1.3,3-3V3C69,1.3,67.7,0,66,0z M65.1,5.9
			c-0.5,0-1.2-0.1-1.6-0.1c-1.1,0-1.2,0.5-1.2,1.2v1.3h2.8l-0.2,2.9h-2.6V20h-3.5v-8.5H57V8.6h1.8V6.8c0-2.4,1.2-3.8,4-3.8
			c1,0,1.7,0.1,2.7,0.2L65.1,5.9z"/>
	</g>
</g>
<g>
	<g>
		<path fill="#363636" d="M35.1,35.6h-1.7v2.6h1.7c0.6,0,1-0.1,1.2-0.4c0.2-0.2,0.4-0.6,0.4-1c0-0.4-0.1-0.7-0.4-0.9
			C36.1,35.7,35.7,35.6,35.1,35.6z M35.9,32.8c0.2-0.2,0.3-0.5,0.3-0.9c0-0.4-0.1-0.7-0.3-0.9c-0.2-0.2-0.6-0.3-1.1-0.3h-1.5v2.5
			h1.5C35.3,33.1,35.7,33,35.9,32.8z M43,23H26c-1.7,0-3,1.3-3,3v17c0,1.7,1.3,3,3,3h17c1.7,0,3-1.3,3-3V26C46,24.3,44.7,23,43,23z
			 M39.6,39.1c-0.3,0.5-0.6,1-1.1,1.3c-0.3,0.2-0.7,0.3-1.3,0.4C36.5,40.9,36,41,35.8,41H30V28h6.3c1,0,1.8,0.3,2.4,0.9
			c0.6,0.6,0.8,1.4,0.8,2.3c0,0.8-0.2,1.4-0.6,2c-0.3,0.4-0.7,0.7-1.2,0.9c0.8,0.2,1.3,0.6,1.7,1.2c0.4,0.5,0.5,1.2,0.5,2.1
			C40,38,39.9,38.6,39.6,39.1z"/>
	</g>
</g>
<g>
	<g>
		<path fill-rule="evenodd" clip-rule="evenodd" fill="#363636" d="M20,46H3c-1.7,0-3,1.3-3,3v17c0,1.7,1.3,3,3,3h17
			c1.7,0,3-1.3,3-3V49C23,47.3,21.7,46,20,46z M15.5,64.9c-0.8,0.1-1.7,0-2.4-0.3c-0.1-0.1-0.2-0.1-0.3-0.1
			c-4.1,0.6-7.8-2.2-8.3-6.2c0-0.2,0-0.5,0-0.7c0-0.4,0-0.8,0.1-1.2c0-0.2,0-0.3-0.1-0.5c-0.8-1.6-0.5-3.5,0.8-4.7
			c1.3-1.3,3.3-1.5,4.9-0.7c0.2,0.1,0.4,0.1,0.6,0.1c3.8-0.5,7.3,2.1,8,5.8c0.1,0.8,0.1,1.7,0,2.5c0,0.1,0,0.2,0,0.3
			C19.7,61.7,18.2,64.5,15.5,64.9z M14.4,57.1c-0.4-0.2-0.8-0.3-1.2-0.5c-0.8-0.2-1.5-0.4-2.3-0.6c-0.3-0.1-0.6-0.2-0.9-0.4
			c-0.4-0.3-0.4-0.8,0-1.1c0.2-0.2,0.5-0.3,0.7-0.4c0.3-0.1,0.6-0.1,0.9-0.1c0.7,0,1.2,0.3,1.5,0.9c0.1,0.2,0.2,0.4,0.3,0.5
			c0.3,0.4,0.6,0.4,1,0.3c0.4-0.1,0.6-0.3,0.7-0.7c0.1-0.3,0-0.6-0.1-0.9c-0.3-0.6-0.7-1-1.3-1.2c-0.7-0.4-1.5-0.5-2.3-0.4
			c-0.2,0-0.4,0-0.6,0c-0.9,0.1-1.7,0.3-2.4,0.8c-0.8,0.6-1.1,1.5-0.8,2.4c0.2,0.8,0.8,1.3,1.6,1.7c0.7,0.3,1.5,0.5,2.3,0.7
			c0.5,0.1,1.1,0.2,1.6,0.6c0.5,0.4,0.6,1,0.2,1.4c-0.1,0.2-0.3,0.3-0.5,0.4c-0.5,0.2-1.1,0.3-1.6,0.2c-0.7-0.1-1.2-0.4-1.5-1
			c-0.1-0.2-0.2-0.4-0.3-0.6c-0.2-0.3-0.4-0.5-0.8-0.5c-0.8-0.1-1.3,0.5-1.1,1.3c0.3,1.1,1.1,1.8,2.3,2.1c1.2,0.4,2.5,0.4,3.7,0
			c0.7-0.2,1.2-0.5,1.7-1C16,60.1,16.1,58,14.4,57.1z"/>
	</g>
</g>
</svg>
