<?xml version="1.0" encoding="utf-8"?>
<!-- Generator: Adobe Illustrator 18.1.0, SVG Export Plug-In . SVG Version: 6.00 Build 0)  -->
<svg version="1.1" id="Layer_1" xmlns="http://www.w3.org/2000/svg" xmlns:xlink="http://www.w3.org/1999/xlink" x="0px" y="0px"
	 viewBox="0 0 160 32" enable-background="new 0 0 160 32" xml:space="preserve">
<path fill-rule="evenodd" clip-rule="evenodd" fill="#FFFFFF" d="M16,20.4h1c0,0,0.3,0,0.4-0.2c0.1-0.2,0.1-0.4,0.1-0.4
	s0-1.3,0.6-1.5c0.6-0.2,1.4,1.3,2.2,1.9c0.6,0.4,1.1,0.3,1.1,0.3l2.2,0c0,0,1.1-0.1,0.6-1c0-0.1-0.3-0.7-1.6-1.9
	c-1.4-1.3-1.2-1.1,0.5-3.3c1-1.4,1.4-2.2,1.3-2.5c-0.1-0.3-0.9-0.2-0.9-0.2l-2.5,0c0,0-0.2,0-0.3,0.1c-0.1,0.1-0.2,0.3-0.2,0.3
	s-0.4,1-0.9,1.9c-1.1,1.9-1.5,2-1.7,1.9c-0.4-0.3-0.3-1.1-0.3-1.7c0-1.8,0.3-2.6-0.5-2.8c-0.3-0.1-0.5-0.1-1.1-0.1
	c-0.9,0-1.6,0-2,0.2c-0.3,0.1-0.5,0.4-0.4,0.5c0.2,0,0.5,0.1,0.7,0.4c0.3,0.3,0.2,1.1,0.2,1.1s0.1,2.1-0.3,2.4
	c-0.3,0.2-0.8-0.2-1.8-1.9c-0.5-0.9-0.9-1.8-0.9-1.8s-0.1-0.2-0.2-0.3c-0.2-0.1-0.4-0.2-0.4-0.2l-2.3,0c0,0-0.4,0-0.5,0.2
	C7.9,11.7,8,12,8,12s1.8,4.3,3.9,6.5C13.8,20.5,16,20.4,16,20.4z"/>
<path fill="#FFFFFF" d="M51,8.2C50.2,8.1,49.6,8,48.8,8c-2.3,0-3.3,1.1-3.3,3.1v1.5h-1.5v2.4h1.5V22h2.9v-7.2h2.1l0.2-2.4h-2.3v-1.1
	c0-0.6,0.1-1,1-1c0.3,0,0.9,0.1,1.3,0.1L51,8.2z"/>
<path fill="#FFFFFF" d="M86,11.3c-0.5,0.2-1,0.4-1.5,0.4c0.6-0.3,1-0.9,1.2-1.5c-0.5,0.3-1.1,0.5-1.7,0.7C83.5,10.3,82.8,10,82,10
	c-1.5,0-2.7,1.2-2.7,2.8c0,0.2,0,0.4,0.1,0.6c-2.2-0.1-4.2-1.2-5.5-2.9c-0.2,0.4-0.4,0.9-0.4,1.4c0,1,0.5,1.8,1.2,2.3
	c-0.4,0-0.8-0.1-1.2-0.3c0,0,0,0,0,0c0,1.3,0.9,2.5,2.1,2.7c-0.2,0.1-0.5,0.1-0.7,0.1c-0.2,0-0.3,0-0.5,0c0.3,1.1,1.3,1.9,2.5,1.9
	c-0.9,0.7-2.1,1.2-3.3,1.2c-0.2,0-0.4,0-0.6,0c1.2,0.8,2.6,1.2,4.1,1.2c4.9,0,7.6-4.2,7.6-7.9c0-0.1,0-0.2,0-0.4
	C85.2,12.3,85.6,11.9,86,11.3L86,11.3z"/>
<g>
	<g>
		<path fill="#FFFFFF" d="M107.6,18.9c-0.9,0-1.6,0.7-1.6,1.6c0,0.9,0.7,1.6,1.6,1.6c0.9,0,1.6-0.7,1.6-1.6
			C109.1,19.6,108.4,18.9,107.6,18.9z M106,14.2v2.1c3.2,0,5.7,2.6,5.7,5.7h2.1C113.8,17.7,110.3,14.2,106,14.2z M106,10v2.1
			c5.5,0,9.9,4.4,9.9,9.9h2.1C118,15.4,112.6,10,106,10z"/>
	</g>
</g>
<g>
	<g>
		<path fill="#FFFFFF" d="M145,10h-3.3c-0.9,0-2,0.1-2.9,0.9c-0.7,0.6-1,1.4-1,2.1c0,1.2,1,2.5,2.7,2.5c0.2,0,0.3,0,0.5,0
			c-0.1,0.2-0.2,0.3-0.2,0.6c0,0.5,0.3,0.8,0.5,1.1c-0.7,0-2.1,0.1-3.1,0.7c-0.9,0.6-1.2,1.4-1.2,1.9c0,1.2,1.1,2.3,3.4,2.3
			c2.8,0,4.2-1.5,4.2-3c0-1.1-0.6-1.6-1.3-2.2l-0.6-0.4c-0.2-0.1-0.4-0.3-0.4-0.7c0-0.3,0.2-0.6,0.5-0.8c0.7-0.5,1.3-1.1,1.3-2.2
			c0-1.2-0.8-1.8-1.1-2.1h1L145,10z M143.6,19.6c0,1-0.8,1.7-2.4,1.7c-1.7,0-2.8-0.8-2.8-1.9c0-1.1,1-1.5,1.4-1.6
			c0.7-0.2,1.5-0.3,1.7-0.3c0.2,0,0.2,0,0.4,0C143.1,18.4,143.6,18.8,143.6,19.6z M142.3,14.6c-0.3,0.3-0.7,0.4-1.1,0.4
			c-1.4,0-2-1.7-2-2.8c0-0.4,0.1-0.8,0.4-1.2c0.3-0.3,0.7-0.5,1.1-0.5c1.3,0,2,1.8,2,2.9C142.7,13.7,142.7,14.2,142.3,14.6z
			 M148.6,12.4V10H148v2.4h-2.5V13h2.5v2.5h0.6V13h2.4v-0.6H148.6z"/>
	</g>
</g>
</svg>
