<svg xmlns="http://www.w3.org/2000/svg" xmlns:xlink="http://www.w3.org/1999/xlink" width="1094" height="800" viewBox="0 0 1094 800"><g><circle fill="#2B3990" cx="153.286" cy="135.857" r="115.714"/><path fill="#fff" d="M135.34 201.409v-75.786h-12.534v-15.356h12.534v-6.558c0-23.629 11.206-35.444 33.618-35.444 7.249 0 14.72 1.052 22.412 3.154v16.602c-6.973-2.933-13.227-4.399-18.76-4.399-8.467 0-12.7 6.392-12.7 19.175v7.471h23.076v15.356h-23.076v75.786h-24.57z"/></g><g><circle fill="#E05B38" cx="157.088" cy="396.286" r="115.714"/><path fill-rule="evenodd" clip-rule="evenodd" fill="#fff" d="M217.179 427.387c-2.635-12.102-4.931-22.738-9.122-32.433-13.262-30.682-36.815-51.028-69.934-61.826-8.623-2.811-17.968-2.326-27.872-4.054-1.077.727-3.714.578-5.574.507l-4.561 3.547c-.793 3.295-1.177 4.93-1.014 8.615 2.084 2.161 3.385 5.045 6.588 6.081h10.135c5.552 1.216 11.405 1.331 16.723 3.041 14.109 4.536 28.049 11.386 37.501 20.777 11.038 10.968 19.555 24.302 25.338 40.541 2.09 5.867 2.167 12.457 3.547 18.75 1.203 5.487-.953 9.927 2.027 13.176 2.564 6.99 14.143 3.735 15.71-2.027 1.217-1.757 1.271-11.194.508-14.695zm-110.475-64.867c-.595.409-.848.408-2.027.507-1.22 1.212-3.132 2.639-4.561 3.547-.836 3.267-2.356 6.749 0 9.629 2.362 6.527 7.753 3.34 15.203 5.068 11.818 2.741 21.143 6.534 29.392 12.669 8.327 6.193 15.242 17.49 18.75 28.379 1.02 3.167 1.351 6.562 2.027 9.629.747 3.39-.627 7.375.507 10.135 1.357 3.302 4.237 3.86 6.588 6.081 5.781-.005 6.924-1.893 10.135-4.054 3.609-13.825-2.123-28.376-6.588-38.514-10.32-23.439-35.513-43.321-69.426-43.076zm10.136 41.555c-1.799 1.163-4.045 1.099-6.081 2.027-5.082 2.316-9.549 8.413-11.149 14.19-4.132 14.919 10.896 29.87 25.338 26.352 11.271-2.745 22.516-16.58 15.203-30.913-3.941-7.725-11.168-11.92-23.311-11.656z"/></g><g><circle fill="#1C75BC" cx="409.332" cy="388.575" r="115.714"/><text transform="translate(338.567 432.706)" fill="#fff" font-family="'Montserrat-Bold'" font-size="157.119">in</text></g><g><circle fill="#DA1C5C" cx="682.84" cy="388.575" r="115.714"/><path fill-rule="evenodd" clip-rule="evenodd" fill="#fff" d="M725.766 329.599c8.188-.188 15.632-.055 20.413 3.189 8.211 5.573 10.922 24.615 6.379 36.998-8.469 23.082-31.683 55.328-49.756 68.893-5.711 4.286-17.602 16.802-29.981 13.396-18.6-5.118-23.754-45.417-29.981-64.427-2.619-7.994-3.803-19.613-11.482-22.326-.826-.56-1.574-.57-3.189-.638-2.404 2.325-6.861 5.291-10.206 6.379v-.638c-2.299-1.578-5.421-5.505-6.379-8.293 12.706-8.11 21.291-21.555 35.084-28.705 7.549-3.913 18.067-1.807 22.326 4.465 7.726 11.378 8.508 41.23 13.396 56.135 1.521 4.637 3.403 15.515 8.931 13.396 7.771-2.172 18.185-21.416 21.051-29.343 1.265-3.499 2.092-9.797 0-12.758-.954-2.748-2.653-2.748-4.465-4.465-6.334-.103-9.937 1.205-14.672 1.914v-.638c1.263-1.65.984-3.539 1.914-5.741 2.307-5.462 6.506-13.545 10.844-17.223 3.386-2.871 7.807-5.927 12.12-7.655 2.48-.995 5.607-.567 7.653-1.915z"/></g><g><circle fill="#BE1E2D" cx="153.286" cy="657.844" r="115.714"/><path fill-rule="evenodd" clip-rule="evenodd" fill="#fff" d="M147.318 585.87c32.552-.472 52.406 11.565 60.101 35.062 2.172 6.631 2.233 17.896.541 24.968-4.811 20.109-8.808 30.376-24.365 39.843-6.382 3.884-18.433 8.11-28.697 4.781-5.762-1.869-8.707-6-12.995-9.031-.946 10.029-5.671 24.179-9.746 31.874-1.54 2.908-2.305 7.719-5.956 8.5-5.785-4.713-9.615 1.003-9.205-11.156 1.511-2.534 1.661-13.366 2.707-17 3.512-12.2 6.895-25.826 9.746-38.249.661-2.881-1.114-4.663-1.624-6.375-1.225-4.113-1.297-12.899 0-17 1.744-5.515 11.562-19.096 20.575-12.75 6.803 2.176 8.242 11.567 5.956 19.656-3.192 11.292-13.726 31.579 1.624 37.187 11.332 4.14 19.508-5.501 23.282-11.156 12.681-19.001 12.904-52.077-8.663-61.624-5.39-2.386-15.036-4.268-22.199-2.656-3.455.777-5.67.101-8.663 1.062-15.613 5.013-24.7 15.411-28.697 31.874-1.715 7.064.379 16.182 3.249 20.718.915 1.446 3.693 3.238 3.79 5.312l-2.707 10.094c-1.215.312-1.438.397-2.166 1.062-3.089-1.224-6.144-2.41-8.663-4.25-9.341-6.821-14.063-28.403-8.663-43.03 4.471-12.112 13.39-22.9 23.824-29.218 5.116-3.098 11.721-5.13 17.868-6.906 3.248-.529 6.498-1.06 9.746-1.592z"/></g><g><circle fill="#1C75BC" cx="935.058" cy="388.575" r="115.714"/><path fill-rule="evenodd" clip-rule="evenodd" fill="#fff" d="M945.628 415.949c-.056 7.693-1.428 23.088.42 29.398.89 3.039 3.484 3.737 3.78 7.56-.528.273-.87.458-1.26.84-15.333-3.133-11.99-21.177-11.759-39.058h-2.1c.267 15.516 4.394 38.794-12.599 38.638-.265-.737-.081-.408-.42-.84.786-2.718 3.039-3.783 3.78-6.72l.42-30.238h-.42c-2.938 4.813-2.019 14.313-2.52 21.419-.076 1.081.537 5.588-.42 7.14-1.462 4.409-8.043 6.69-13.859 5.46l-.42-1.26c7.931-5.057 6.905-10.394 6.72-23.099h-.84c-1.796 1.148-7.016.829-8.819.42-2.886-.655-4.801-.217-7.14-1.26-6.606-2.947-7.34-9.984-11.339-15.539-1.983-2.754-7.09-3.943-7.56-7.979h.84c7.542-4.953 15.008 10.432 18.899 13.019 4.48 2.979 11.758 1.045 16.379 0 1.399-4.281 2.474-7.472 5.88-9.659-.429-.338-.115-.149-.84-.42-2.053-1.237-5.467-.559-7.979-1.26-5.454-1.521-11.233-3.428-15.539-6.3-14.082-9.391-20.764-41.196-5.88-55.017-.651-6.516-4.164-22.779 5.04-22.679l8.399 2.52c3.836 1.666 6.98 5.524 11.339 6.3 3.233-2.243 21.232-3.911 27.718-2.52 1.963.421 9.551 2.251 11.339 1.68 1.078-.344 2.412-1.943 3.36-2.52 4.741-2.884 11.474-6.105 18.059-5.46.691 2.75 1.802 5.957 2.52 9.239.85 3.885-2.158 8.934-.42 11.759.625 1.763 2.002 2.443 2.94 3.78 1.792 2.555 3.607 6.158 4.62 9.239 5.464 16.619-1.941 37.834-11.339 44.097-4.345 2.896-10.303 4.395-15.959 5.88-2.395.629-7.164-.116-8.399 1.68 8.289 2.978 6.719 18.508 6.72 29.818v7.979c1.082 3.327 5.526 3.643 6.3 7.14l-1.26.42c-3.615 2.513-11.42-2.268-12.179-4.62-1.686-1.919-1.26-6.048-1.26-9.659 0-6.936.444-14.621-1.68-19.319l-1.263.001z"/></g><g><circle fill="#006838" cx="409.332" cy="657.844" r="115.714"/><path fill-rule="evenodd" clip-rule="evenodd" fill="#fff" d="M345.605 673.494c.099-3.031.757-6.9 2.198-8.794 3.4-11.338 15.139-8.91 27.115-8.061v-1.466c-2.908-4.496-1.636-16.887 0-21.252 4.637-12.371 17.388-26.975 37.374-20.519 8.572 2.769 16.449 9.599 19.786 17.588 1.938 4.639 1.221 15.646 5.13 18.321 4.436-6.929 12.926-13.903 21.985-16.122 23.001-5.635 39.208 22.825 27.847 41.038-8.01 12.842-23.544 12.459-44.702 12.458h-71.084c-12.112 0-26.822.806-36.641-1.466-2.895-5.676-1.709-7.719 2.198-11.725h8.794z"/></g><g><circle fill="#231F20" cx="682.84" cy="657.844" r="115.714"/><path fill-rule="evenodd" clip-rule="evenodd" fill="#fff" d="M634.404 619.676c-2.157 1.393-5.223 1.05-7.794 2.125-9.891 4.136-18.692 14.034-21.964 24.797-7.619 25.059 17.081 52.636 42.511 46.76 18.634-4.306 39.014-25.417 28.341-51.01-6.198-14.863-19.154-23.083-41.094-22.672zm120.449 22.672c-6.198-14.863-19.154-23.082-41.094-22.671-2.157 1.393-5.223 1.05-7.794 2.125-9.891 4.136-18.692 14.034-21.964 24.797-7.619 25.059 17.081 52.636 42.511 46.76 18.634-4.307 39.014-25.418 28.341-51.011z"/></g><g><circle fill="#F9ED32" cx="935.058" cy="656.91" r="115.714"/><path fill-rule="evenodd" clip-rule="evenodd" fill="#fff" d="M1002.524 610.833c-1.774-.08-.901-.438-1.858 0h-89.788c-10.13 0-32.288-1.999-40.25.619.083 32.698 1.822 61.172 1.858 92.265h129.419c-.08-3.053-.66-8.576.619-10.527v-82.357zm-115.795 7.431h97.219c-6.063 12.639-23.319 27.033-34.058 37.773-3.844 3.845-8.234 11.099-13.623 13.004l-49.538-49.538v-1.239zm-4.954 69.972c-2.032-.445-1.443-.633-3.096-1.238v-60.065c4.189 1.498 6.975 6.356 9.908 9.288 7.18 7.18 14.424 13.902 21.054 21.673-1.729 8.368-22.517 22.332-27.866 30.342zm102.792 9.289h-73.069c-8.979-.001-22.143 1.578-24.769-3.096 9.7-9.907 19.403-19.816 29.104-29.723l18.577 18.577c7.113-2.568 13.418-13.699 19.815-17.958l.619-.619 30.342 30.961-.619 1.858zm8.669-9.289l-.619.619-19.815-19.815c-3.106-4.112-6.905-9.504-11.146-12.385 1.22-3.383 4.492-5.111 6.812-7.431l22.911-23.531h1.238c-.582 2.145.511 3.157.619 6.192l.619 31.581c-.001 4.227-1.204 12.528.619 15.481.13 3.368.53 7.725-1.238 9.289z"/></g><g><circle fill="#ED1C24" cx="954.286" cy="134.837" r="115.714"/><g fill="#fff"><path d="M1016.56 113.916c0-1.1.06-2.898.133-3.996 0 0 1.026-15.332-.884-21.524-1.475-4.783-4.597-9.12-8.257-11.76-6.737-4.859-28.526-4.075-28.526-4.075-1.099.04-2.899.072-3.999.072h-60.803c-1.1 0-2.881.184-3.958.408l-2.089.435c-1.077.224-2.726.877-3.664 1.451 0 0-7.285 4.453-9.803 8.715-3.401 5.757-2.82 22.771-2.82 22.771.037 1.099.068 2.899.068 3.999v49.294c0 1.1-.025 2.9-.055 3.999 0 0-.409 14.878 1.806 20.019 6.351 14.735 38.285 13.112 38.285 13.112 1.099-.056 2.897-.102 3.997-.102h36.033c1.1 0 2.896.083 3.992.184 0 0 23.654 2.18 33.287-5.438 7.656-6.054 7.287-29.526 7.287-29.526-.017-1.1-.031-2.9-.031-4v-44.038zm-39.282 27.274l-29.274 16.013c-3.18 1.733-9.386 4.053-9.386 4.053-1.03.385-1.961-.195-2.068-1.29 0 0-.806-8.255-.806-13.022 0-11.091.465-37.533.465-37.533.019-1.1.185-2.112.369-2.25s1.487-.129 2.489.324c0 0 7.641 3.457 11.439 5.681 11.508 6.254 32.771 17.81 32.771 17.81.966.525 1.317 1.74.778 2.699 0 .001-3.136 5.589-6.777 7.515zM1016.56 113.916c0-1.1.06-2.898.133-3.996 0 0 1.026-15.332-.884-21.524-1.475-4.783-4.597-9.12-8.257-11.76-6.737-4.859-28.526-4.075-28.526-4.075-1.099.04-2.899.072-3.999.072h-60.803c-1.1 0-2.881.184-3.958.408l-2.089.435c-1.077.224-2.726.877-3.664 1.451 0 0-7.285 4.453-9.803 8.715-3.401 5.757-2.82 22.771-2.82 22.771.037 1.099.068 2.899.068 3.999v49.294c0 1.1-.025 2.9-.055 3.999 0 0-.409 14.878 1.806 20.019 6.351 14.735 38.285 13.112 38.285 13.112 1.099-.056 2.897-.102 3.997-.102h36.033c1.1 0 2.896.083 3.992.184 0 0 23.654 2.18 33.287-5.438 7.656-6.054 7.287-29.526 7.287-29.526-.017-1.1-.031-2.9-.031-4v-44.038zm-39.282 27.274l-29.274 16.013c-3.18 1.733-9.386 4.053-9.386 4.053-1.03.385-1.961-.195-2.068-1.29 0 0-.806-8.255-.806-13.022 0-11.091.465-37.533.465-37.533.019-1.1.185-2.112.369-2.25s1.487-.129 2.489.324c0 0 7.641 3.457 11.439 5.681 11.508 6.254 32.771 17.81 32.771 17.81.966.525 1.317 1.74.778 2.699 0 .001-3.136 5.589-6.777 7.515z"/></g></g><g><circle fill="#27AAE1" cx="406.714" cy="134.837" r="115.714"/><path fill-rule="evenodd" clip-rule="evenodd" fill="#fff" d="M410.959 116.158c.163-2.948-.115-7.105 1.009-10.39 3.644-10.646 10.755-17.276 20.775-19.569 5.264-1.205 14.16-1.09 19.585 1.989 4.163 2.363 7.495 5.422 10.259 8.853 4.167.532 10.891-1.248 14.193-2.473l4.489-1.657-.071.523c-3.58 6.342-7.952 10.295-14.06 13.284 4.231-.135 8.484-.188 12.279-1.133 1.288-.321 2.681-.933 4.138-1.038l-.018.131c-3.043 4.21-11.026 10.879-15.952 12.495-.873 12.217-5.369 22.213-9.378 30.842-7.658 16.483-23.662 30.434-39.102 36.806-6.313 2.605-13.144 4.004-20.334 5.505-15.996 3.338-41.941-3.453-52.74-11.015-2.498-1.749-10.059-5.438-10.925-7.877l1.963.266c.768.911 10.081 1.692 11.776 1.597 11.669-.654 20.734-2.928 29.039-7.789l.018-.131c-11.132-.58-23.462-13.835-23.395-23.026l1.047.142c2.844 1.395 8.71 1.93 11.455 1.02-2.135-.372-3.802-1.651-5.247-2.577-8.838-5.659-15.165-14.536-13.218-28.309 2.438 1.012 8.28 5.784 11.987 4.956l-.393-.053-4.482-5.271c-3.357-6.071-6.643-14.974-3.034-24.796 1.164-3.169 3.251-5.511 4.311-8.21l.523.071c7.845 15.209 30 33.506 53.503 36.834z"/></g><g><defs><circle id="a" cx="682.84" cy="134.837" r="115.714"/></defs><use xlink:href="#a" overflow="visible" fill="#231F20"/><clipPath id="b"><use xlink:href="#a" overflow="visible"/></clipPath><path fill-rule="evenodd" clip-rule="evenodd" fill="#fff" d="M757.475 71.042v-34.736h-16v34.736h-32v17.368h32v34.736h16v-34.736h32v-17.368h-32zm-176.897 175.023c3.404 1.543 7.042 2.801 9.897 5.08-6.413-7.335-8.282-7.151-9.897-5.08zm17.897-198.92c-13.965 4.491-22.34 12.986-33 20v79s14.187 9.417 21 12c4.191 1.589 16.628 5.139 21 3h6c-3.42 13.582-4.049 27.026 7 34v1c-25.846.165-37.677 2.986-55 10 0 14.999-19.759 38.429 0 45 11.269 3.748 12.961-2.33 15.103-5.08-1.82-.825-3.577-1.727-5.103-2.92-3.575-2.794-5.057-8.502-8-12 1.766-18.63 43.591-31.686 67-24 9.305 3.055 18.188 11.91 25 18 6.051 5.41 14.351 14.676 11 26h24c.157-37.178-13.188-46.715-34-62l-17-17c-1.66-29.761 47.123-34.312 37-76-.779-3.208-1.541-8.487-3-12-3.871-9.319-10.612-14.361-17-21h-1v-1c25.433.375 23.836-5.22 36-17v-1c-29.221.099-73.353-4.604-97 3zm33 102c-8.532 2.952-18.284-.282-24-3-15.024-7.144-36.161-31.072-30-58 2.603-11.378 7.43-22.593 16-28 2.479-1.564 5.829-1.391 8-3 28.247-.595 40.615 18.168 47 39 6.867 22.406-.51 47.295-17 53z" clip-path="url(#b)"/></g></svg>