<?xml version="1.0" encoding="utf-8"?>
<!-- Generator: Adobe Illustrator 18.1.1, SVG Export Plug-In . SVG Version: 6.00 Build 0)  -->
<svg version="1.1" id="Layer_1" xmlns="http://www.w3.org/2000/svg" xmlns:xlink="http://www.w3.org/1999/xlink" x="0px" y="0px"
	 viewBox="0 0 50 50" enable-background="new 0 0 50 50" xml:space="preserve">
<path d="M44.8,13.2c-1.4,0.6-3,1.1-4.6,1.3c1.7-1,2.9-2.6,3.5-4.4c-1.5,0.9-3.3,1.6-5.1,1.9c-1.5-1.6-3.5-2.5-5.8-2.5
	c-4.4,0-8,3.6-8,8c0,0.6,0.1,1.2,0.2,1.8c-6.6-0.3-12.5-3.5-16.5-8.4c-0.7,1.2-1.1,2.6-1.1,4c0,2.8,1.4,5.2,3.6,6.7
	c-1.3,0-2.5-0.4-3.6-1c0,0,0,0.1,0,0.1c0,3.9,2.8,7.1,6.4,7.9c-0.7,0.2-1.4,0.3-2.1,0.3c-0.5,0-1-0.1-1.5-0.1c1,3.2,4,5.5,7.5,5.6
	c-2.7,2.1-6.2,3.4-9.9,3.4c-0.6,0-1.3,0-1.9-0.1c3.5,2.3,7.7,3.6,12.3,3.6c14.7,0,22.7-12.2,22.7-22.8c0-0.3,0-0.7,0-1
	C42.4,16.2,43.8,14.8,44.8,13.2z"/>
</svg>
