<svg xmlns="http://www.w3.org/2000/svg" width="50" height="50"  viewBox="0 0 50 50" enable-background="new 0 0 50 50"><path d="M44.8 13.2c-1.4.6-3 1.1-4.6 1.3 1.7-1 2.9-2.6 3.5-4.4-1.5.9-3.3 1.6-5.1 1.9-1.5-1.6-3.5-2.5-5.8-2.5-4.4 0-8 3.6-8 8 0 .6.1 1.2.2 1.8-6.6-.3-12.5-3.5-16.5-8.4-.7 1.2-1.1 2.6-1.1 4 0 2.8 1.4 5.2 3.6 6.7-1.3 0-2.5-.4-3.6-1v.1c0 3.9 2.8 7.1 6.4 7.9-.7.2-1.4.3-2.1.3l-1.5-.1c1 3.2 4 5.5 7.5 5.6-2.7 2.1-6.2 3.4-9.9 3.4-.6 0-1.3 0-1.9-.1 3.5 2.3 7.7 3.6 12.3 3.6 14.7 0 22.7-12.2 22.7-22.8v-1c1.5-1.3 2.9-2.7 3.9-4.3z"/></svg>