<svg xmlns="http://www.w3.org/2000/svg" width="27" height="27"  viewBox="-292 380 27 27" enable-background="new -292 380 27 27"><path d="M-278.8 402h1.6s.5-.1.7-.3c.2-.2.2-.7.2-.7s0-2.2 1-2.6c1-.3 2.3 2.2 3.6 3.1 1 .7 1.8.6 1.8.6h3.6s1.9-.1 1-1.7c-.1-.1-.5-1.1-2.7-3.2-2.3-2.2-2-1.8.8-5.6 1.7-2.3 2.3-3.7 2.1-4.3-.2-.6-1.4-.4-1.4-.4h-4.1s-.3 0-.5.1-.4.5-.4.5-.6 1.8-1.5 3.3c-1.8 3.2-2.5 3.4-2.8 3.2-.7-.5-.5-1.9-.5-2.8 0-3.1.5-4.4-.9-4.7-.4-.1-.8-.2-1.9-.2-1.5 0-2.7 0-3.4.4-.5.2-.8.8-.6.8.3 0 .9.2 1.2.6.4.6.4 1.9.4 1.9s.2 3.6-.6 4.1c-.6.3-1.3-.3-2.9-3.2-.8-1.5-1.5-3.1-1.5-3.1s-.1-.3-.3-.5c-.3-.2-.6-.3-.6-.3h-3.9s-.6 0-.8.3c-.2.2 0 .7 0 .7s3 7.4 6.4 11.1c3.4 3.1 6.9 2.9 6.9 2.9z"/></svg>