<?xml version="1.0" encoding="utf-8"?>
<!-- Generator: Adobe Illustrator 18.1.0, SVG Export Plug-In . SVG Version: 6.00 Build 0)  -->
<svg version="1.1" id="Layer_1" xmlns="http://www.w3.org/2000/svg" xmlns:xlink="http://www.w3.org/1999/xlink" x="0px" y="0px"
	 viewBox="-292 380 27 27" enable-background="new -292 380 27 27" xml:space="preserve">
<path d="M-278.8,402h1.6c0,0,0.5-0.1,0.7-0.3c0.2-0.2,0.2-0.7,0.2-0.7s0-2.2,1-2.6c1-0.3,2.3,2.2,3.6,3.1c1,0.7,1.8,0.6,1.8,0.6
	l3.6,0c0,0,1.9-0.1,1-1.7c-0.1-0.1-0.5-1.1-2.7-3.2c-2.3-2.2-2-1.8,0.8-5.6c1.7-2.3,2.3-3.7,2.1-4.3c-0.2-0.6-1.4-0.4-1.4-0.4
	l-4.1,0c0,0-0.3,0-0.5,0.1c-0.2,0.1-0.4,0.5-0.4,0.5s-0.6,1.8-1.5,3.3c-1.8,3.2-2.5,3.4-2.8,3.2c-0.7-0.5-0.5-1.9-0.5-2.8
	c0-3.1,0.5-4.4-0.9-4.7c-0.4-0.1-0.8-0.2-1.9-0.2c-1.5,0-2.7,0-3.4,0.4c-0.5,0.2-0.8,0.8-0.6,0.8c0.3,0,0.9,0.2,1.2,0.6
	c0.4,0.6,0.4,1.9,0.4,1.9s0.2,3.6-0.6,4.1c-0.6,0.3-1.3-0.3-2.9-3.2c-0.8-1.5-1.5-3.1-1.5-3.1s-0.1-0.3-0.3-0.5
	c-0.3-0.2-0.6-0.3-0.6-0.3l-3.9,0c0,0-0.6,0-0.8,0.3c-0.2,0.2,0,0.7,0,0.7s3,7.4,6.4,11.1C-282.3,402.2-278.8,402-278.8,402
	L-278.8,402z"/>
</svg>
