<svg xmlns="http://www.w3.org/2000/svg" width="50" height="50"  viewBox="0 0 50 50" enable-background="new 0 0 50 50"><path d="M38.2 25.6c-1.4-1.6-3.4-2.6-5.8-3.1v-.2c1.7-.7 3-1.8 3.9-3.3.9-1.5 1.4-3.2 1.4-5.1 0-1.6-.3-3.1-1-4.3-.7-1.3-1.7-2.2-3.1-3-1.3-.6-2.6-1.1-4.1-1.3-1.5-.2-3.1-.1-6-.1h-13.3v38.5h14.6c2.7 0 4.9-.2 6.7-.7 1.7-.5 3.3-1.3 4.8-2.4 1.2-1 2.2-2.2 2.9-3.6.7-1.5 1.1-3.2 1.1-5.1 0-2.7-.7-4.8-2.1-6.3zm-10.8-7.4c-.3.6-.8 1.1-1.6 1.5-.7.3-1.4.5-2.1.5-.7 0-1.8.1-3.5.1h-1.2v-8.2h4.6c.9 0 1.6.2 2.3.5.7.3 1.2.8 1.5 1.4.3.7.5 1.3.5 1.9 0 .9-.2 1.6-.5 2.3zm2.3 16c-.4.7-1.1 1.3-1.9 1.7-1 .4-2 .7-3 .7s-2.7.1-5.3.1h-.5v-9.7h6c1 0 1.8.2 2.4.4 1 .3 1.7.9 2.2 1.5.5.7.7 1.6.7 2.8 0 .9-.2 1.8-.6 2.5z"/></svg>