<?xml version="1.0" encoding="utf-8"?>
<!-- Generator: Adobe Illustrator 18.1.1, SVG Export Plug-In . SVG Version: 6.00 Build 0)  -->
<svg version="1.1" id="Layer_1" xmlns="http://www.w3.org/2000/svg" xmlns:xlink="http://www.w3.org/1999/xlink" x="0px" y="0px"
	 viewBox="0 0 50 50" enable-background="new 0 0 50 50" xml:space="preserve">
<path d="M38.2,25.6c-1.4-1.6-3.4-2.6-5.8-3.1v-0.2c1.7-0.7,3-1.8,3.9-3.3c0.9-1.5,1.4-3.2,1.4-5.1c0-1.6-0.3-3.1-1-4.3
	c-0.7-1.3-1.7-2.2-3.1-3C32.3,6,31,5.5,29.5,5.3c-1.5-0.2-3.1-0.1-6-0.1H10.2v38.5h14.6c2.7,0,4.9-0.2,6.7-0.7
	c1.7-0.5,3.3-1.3,4.8-2.4c1.2-1,2.2-2.2,2.9-3.6c0.7-1.5,1.1-3.2,1.1-5.1C40.3,29.2,39.6,27.1,38.2,25.6z M27.4,18.2
	c-0.3,0.6-0.8,1.1-1.6,1.5c-0.7,0.3-1.4,0.5-2.1,0.5c-0.7,0-1.8,0.1-3.5,0.1H19v-8.2h0.7c1.7,0,3,0,3.9,0c0.9,0,1.6,0.2,2.3,0.5
	c0.7,0.3,1.2,0.8,1.5,1.4c0.3,0.7,0.5,1.3,0.5,1.9C27.9,16.8,27.7,17.5,27.4,18.2z M29.7,34.2c-0.4,0.7-1.1,1.3-1.9,1.7
	c-1,0.4-2,0.7-3,0.7c-1,0-2.7,0.1-5.3,0.1H19v-9.7h1.8c1.7,0,3.1,0,4.2,0c1,0,1.8,0.2,2.4,0.4c1,0.3,1.7,0.9,2.2,1.5
	c0.5,0.7,0.7,1.6,0.7,2.8C30.3,32.6,30.1,33.5,29.7,34.2z"/>
</svg>
