<?xml version="1.0" encoding="utf-8"?>
<svg xmlns="http://www.w3.org/2000/svg"
	xmlns:xlink="http://www.w3.org/1999/xlink"
	width="25px" height="25px">
<path fill="rgb(0,0,0)" fill-rule="evenodd" d="M 12.73 24.36C 10.57 24.36 8.55 23.81 6.79 22.85 6.79 22.85-0 25-0 25-0 25 2.21 18.47 2.21 18.47 1.1 16.63 0.45 14.48 0.45 12.18 0.45 5.45 5.95-0 12.73-0 19.51-0 25 5.45 25 12.18 25 18.91 19.51 24.36 12.73 24.36ZM 12.73 2.04C 7.09 2.04 2.51 6.59 2.51 12.18 2.51 14.4 3.23 16.45 4.46 18.12 4.46 18.12 3.18 21.89 3.18 21.89 3.18 21.89 7.11 20.64 7.11 20.64 8.72 21.7 10.65 22.32 12.73 22.32 18.36 22.32 22.94 17.77 22.94 12.18 22.94 6.59 18.36 2.04 12.73 2.04ZM 16.66 18.2C 16.08 18.23 16.07 18.65 12.93 17.29 9.79 15.92 7.9 12.6 7.75 12.39 7.61 12.18 6.54 10.66 6.6 9.13 6.65 7.6 7.49 6.88 7.79 6.58 8.09 6.28 8.43 6.21 8.64 6.22 8.85 6.23 9.06 6.26 9.24 6.27 9.42 6.27 9.69 6.18 9.93 6.81 10.16 7.44 10.73 9 10.8 9.16 10.88 9.31 10.92 9.5 10.81 9.7 10.7 9.9 10.64 10.03 10.48 10.21 10.31 10.38 10.13 10.6 9.99 10.73 9.82 10.88 9.65 11.05 9.83 11.36 10 11.68 10.59 12.72 11.49 13.58 12.64 14.69 13.64 15.05 13.95 15.22 14.26 15.39 14.44 15.37 14.63 15.17 14.82 14.97 15.45 14.29 15.67 13.99 15.89 13.68 16.1 13.74 16.38 13.86 16.66 13.97 18.17 14.78 18.48 14.95 18.79 15.11 18.99 15.2 19.07 15.33 19.14 15.46 19.12 16.09 18.83 16.8 18.54 17.52 17.24 18.17 16.66 18.2Z"/>
</svg>