<svg xmlns="http://www.w3.org/2000/svg" width="25" height="25"  width="25" height="25"><path fill-rule="evenodd" d="M12.73 24.36c-2.16 0-4.18-.55-5.94-1.51l-6.79 2.15 2.21-6.53c-1.11-1.84-1.76-3.99-1.76-6.29 0-6.73 5.5-12.18 12.28-12.18 6.78 0 12.27 5.45 12.27 12.18 0 6.73-5.49 12.18-12.27 12.18zm0-22.32c-5.64 0-10.22 4.55-10.22 10.14 0 2.22.72 4.27 1.95 5.94l-1.28 3.77 3.93-1.25c1.61 1.06 3.54 1.68 5.62 1.68 5.63 0 10.21-4.55 10.21-10.14 0-5.59-4.58-10.14-10.21-10.14zm3.93 16.16c-.58.03-.59.45-3.73-.91-3.14-1.37-5.03-4.69-5.18-4.9-.14-.21-1.21-1.73-1.15-3.26.05-1.53.89-2.25 1.19-2.55.3-.3.64-.37.85-.36l.6.05c.18 0 .45-.09.69.54.23.63.8 2.19.87 2.35.08.15.12.34.01.54s-.17.33-.33.51l-.49.52c-.17.15-.34.32-.16.63.17.32.76 1.36 1.66 2.22 1.15 1.11 2.15 1.47 2.46 1.64.31.17.49.15.68-.05.19-.2.82-.88 1.04-1.18.22-.31.43-.25.71-.13.28.11 1.79.92 2.1 1.09.31.16.51.25.59.38.07.13.05.76-.24 1.47-.29.72-1.59 1.37-2.17 1.4z"/></svg>