<svg xmlns="http://www.w3.org/2000/svg" width="56" height="40"  viewBox="0 0 56 39.7" enable-background="new 0 0 56 39.7"><path fill="#0F0E0E" d="M55.4 8.6s-.5-3.9-2.2-5.6c-2.1-2.3-4.5-2.3-5.6-2.4-7.8-.6-19.6-.6-19.6-.6s-11.8 0-19.6.6c-1.1.1-3.5.1-5.6 2.4-1.7 1.7-2.2 5.6-2.2 5.6s-.6 4.6-.6 9.2v4.3c0 4.6.6 9.2.6 9.2s.5 3.9 2.2 5.6c2.1 2.3 4.9 2.2 6.2 2.4 4.5.4 19 .6 19 .6s11.8 0 19.6-.6c1.1-.1 3.5-.1 5.6-2.4 1.7-1.7 2.2-5.6 2.2-5.6s.6-4.6.6-9.2v-4.3c0-4.6-.6-9.2-.6-9.2zm-33.2 18.8v-16l15.1 8-15.1 8z"/></svg>