<svg xmlns="http://www.w3.org/2000/svg" viewBox="0 0 30 30" enable-background="new 0 0 30 30"><path d="M9.5 13.1h1.6v-4.3l1.9-6.1h-1.6l-1 4.2h-.1l-1.1-4.2h-1.6l1.9 6.3zM12.9 11.2c0 .7.2 1.2.6 1.6.4.4.9.6 1.5.6s1.2-.2 1.5-.6c.4-.4.6-.9.6-1.5v-4c0-.6-.2-1.1-.6-1.4-.4-.4-.9-.6-1.4-.6-.6 0-1.2.2-1.5.5-.4.4-.6.8-.6 1.4l-.1 4zm1.5-4c0-.2.1-.3.2-.4s.3-.2.4-.2c.2 0 .3.1.5.2s.2.2.2.4v4.2c0 .2-.1.4-.2.5l-.5.1c-.2 0-.3-.1-.4-.2-.1-.1-.2-.3-.2-.5v-4.1zM19.3 13.2c.3 0 .5-.1.8-.2.3-.2.6-.4.8-.7v.8h1.4v-7.6h-1.4v5.8c-.1.2-.3.3-.4.4-.2.1-.3.2-.4.2-.1 0-.2 0-.3-.1s-.1-.2-.1-.4v-5.9h-1.4v6.4c0 .5.1.8.3 1 .1.2.3.3.7.3zM24.9 17.3c0-1.5-1.2-2.7-2.7-2.7-2.2-.1-4.4-.1-6.6-.1-2.3 0-4.5 0-6.6.1-1.5 0-2.7 1.2-2.7 2.7-.3 1.2-.3 2.4-.3 3.6 0 1.2 0 2.4.1 3.6 0 1.5 1.2 2.7 2.7 2.7 2.2.1 4.4.1 6.6.1 2.3 0 4.5 0 6.6-.1 1.5 0 2.7-1.2 2.7-2.7.3-1.3.3-2.5.3-3.6 0-1.2 0-2.4-.1-3.6zm-14.8 7.6l-1.3.1v-7.199999999999999h-1.3v-1.3000000000000003h4v1.3000000000000003h-1.3v7.1zm4.6-6.2v6.199999999999999h-1.2v-.7c-.2.3-.4.4-.7.6-.1.2-.3.2-.6.2s-.5-.1-.6-.3c-.1-.2-.2-.5-.2-.8v-5.299999999999999h1.2v4.8c0 .1 0 .3.1.3 0 .1.1.1.2.1s.2 0 .3-.1c.1-.1.2-.2.4-.3v-4.699999999999999h1.1zm4.5 1.5v3.5c0 .4-.1.8-.3 1-.2.2-.4.4-.8.4-.2 0-.4 0-.6-.1-.2-.1-.3-.2-.5-.4v.5h-1.2v-8.5h1.2v2.7c.2-.2.3-.3.5-.4.2-.1.4-.1.5-.1.4 0 .6.1.8.4s.4.4.4 1zm4.2.2v1.6h-2.2v1.1c0 .3 0 .6.1.7.1.1.2.2.4.2s.3-.1.4-.2c.1-.1.1-.3.1-.7v-.4h1.2v.6c0 .6-.1 1.1-.4 1.4-.3.3-.7.5-1.3.5-.5 0-.9-.2-1.2-.5-.3-.3-.4-.8-.4-1.4v-2.9000000000000004c0-.5.2-1 .5-1.3.3-.3.7-.5 1.3-.5.5 0 .9.2 1.2.5.2.2.3.6.3 1.3zM17.5 19.6c-.1 0-.2 0-.2.1-.1 0-.2.1-.2.2v3.8c.1.1.2.2.3.2l.3.1c.1 0 .2 0 .3-.1.1-.1.1-.2.1-.4v-3.1c0-.2 0-.4-.1-.5-.2-.2-.3-.3-.5-.3zM21.7 19.7c-.2 0-.3.1-.4.2-.1.1-.1.3-.1.6v.5h1v-.5c0-.3 0-.4-.1-.6-.1-.2-.2-.2-.4-.2z"/></svg>